<svg width="35" height="31" viewBox="0 0 35 31" fill="none" xmlns="http://www.w3.org/2000/svg">
<path d="M20.1011 15.8671C22.1264 14.3987 23.7079 12.7875 24.8454 11.0336C25.983 9.2796 26.5517 7.53246 26.5517 5.79211C26.5517 4.92193 26.4061 4.28289 26.1147 3.875C25.8234 3.46711 25.4281 3.26316 24.9287 3.26316C23.6247 3.26316 22.4732 4.34408 21.4744 6.50592C20.4756 8.66776 19.9762 11.1083 19.9762 13.8276C19.9762 14.2083 19.9832 14.5686 19.997 14.9086C20.0109 15.2485 20.0456 15.568 20.1011 15.8671ZM1.66468 31V27.7368H4.99405V31H1.66468ZM8.32342 31V27.7368H11.6528V31H8.32342ZM14.9822 31V27.7368H18.3115V31H14.9822ZM21.6409 31V27.7368H24.9703V31H21.6409ZM28.2996 31V27.7368H31.629V31H28.2996ZM2.33056 24.4737L0 22.1895L2.6635 19.5789L0 16.9684L2.33056 14.6842L4.99405 17.2947L7.65755 14.6842L9.98811 16.9684L7.32461 19.5789L9.98811 22.1895L7.65755 24.4737L4.99405 21.8632L2.33056 24.4737ZM22.39 22.8421C21.5577 22.8421 20.7947 22.6857 20.1011 22.373C19.4075 22.0603 18.8109 21.5504 18.3115 20.8434C17.6179 21.2241 16.9035 21.564 16.1683 21.8632C15.433 22.1623 14.677 22.4614 13.9001 22.7605L12.7348 19.7013C13.5117 19.4294 14.2539 19.1371 14.9614 18.8243C15.6688 18.5116 16.3555 18.1785 17.0214 17.825C16.8827 17.2268 16.7786 16.5741 16.7093 15.8671C16.6399 15.1601 16.6052 14.3987 16.6052 13.5829C16.6052 9.66711 17.396 6.42434 18.9774 3.85461C20.5589 1.28487 22.5426 0 24.9287 0C26.3714 0 27.5505 0.523465 28.4661 1.57039C29.3817 2.61732 29.8395 4.07895 29.8395 5.95526C29.8395 8.29386 29.0834 10.6053 27.5713 12.8895C26.0593 15.1737 23.9576 17.2268 21.2663 19.0487C21.4606 19.239 21.6617 19.3818 21.8698 19.477C22.0779 19.5721 22.2929 19.6197 22.5149 19.6197C23.2362 19.6197 24.0755 19.1711 25.0327 18.2737C25.9899 17.3763 26.8569 16.1934 27.6338 14.725L30.6718 16.1118C30.4776 16.5741 30.325 17.1316 30.214 17.7842C30.1031 18.4368 30.1169 19.0079 30.2556 19.4974C30.5331 19.3614 30.8591 19.1303 31.2337 18.8039C31.6082 18.4776 31.9897 18.0697 32.3781 17.5803L35 19.5789C34.2786 20.5579 33.4463 21.3465 32.503 21.9447C31.5597 22.543 30.6857 22.8421 29.8811 22.8421C29.2985 22.8421 28.7782 22.6721 28.3205 22.3322C27.8627 21.9923 27.4812 21.4689 27.176 20.7618C26.3991 21.4417 25.6084 21.9583 24.8038 22.3118C23.9992 22.6654 23.1946 22.8421 22.39 22.8421Z" fill="#E8EAED"/>
</svg>
