<svg width="28" height="37" viewBox="0 0 28 37" fill="none" xmlns="http://www.w3.org/2000/svg">
<path d="M3.5 37C2.5375 37 1.71354 36.655 1.02812 35.9649C0.342708 35.2748 0 34.4452 0 33.4762V15.8571C0 14.8881 0.342708 14.0585 1.02812 13.3685C1.71354 12.6784 2.5375 12.3333 3.5 12.3333H5.25V8.80952C5.25 6.37222 6.10313 4.29464 7.80937 2.57679C9.51562 0.858929 11.5792 0 14 0C16.4208 0 18.4844 0.858929 20.1906 2.57679C21.8969 4.29464 22.75 6.37222 22.75 8.80952V12.3333H24.5C25.4625 12.3333 26.2865 12.6784 26.9719 13.3685C27.6573 14.0585 28 14.8881 28 15.8571V33.4762C28 34.4452 27.6573 35.2748 26.9719 35.9649C26.2865 36.655 25.4625 37 24.5 37H3.5ZM3.5 33.4762H24.5V15.8571H3.5V33.4762ZM14 28.1905C14.9625 28.1905 15.7865 27.8454 16.4719 27.1554C17.1573 26.4653 17.5 25.6357 17.5 24.6667C17.5 23.6976 17.1573 22.8681 16.4719 22.178C15.7865 21.4879 14.9625 21.1429 14 21.1429C13.0375 21.1429 12.2135 21.4879 11.5281 22.178C10.8427 22.8681 10.5 23.6976 10.5 24.6667C10.5 25.6357 10.8427 26.4653 11.5281 27.1554C12.2135 27.8454 13.0375 28.1905 14 28.1905ZM8.75 12.3333H19.25V8.80952C19.25 7.34127 18.7396 6.09325 17.7188 5.06548C16.6979 4.0377 15.4583 3.52381 14 3.52381C12.5417 3.52381 11.3021 4.0377 10.2812 5.06548C9.26042 6.09325 8.75 7.34127 8.75 8.80952V12.3333Z" fill="#E8EAED"/>
</svg>
