<svg width="79" height="42" viewBox="0 0 79 42" fill="none" xmlns="http://www.w3.org/2000/svg">
<rect opacity="0.4" x="0.5" y="0.5" width="77.8888" height="41" rx="3.5" stroke="white"/>
<g clip-path="url(#clip0_14_1615)">
<path d="M25.9266 14.4993C25.4331 15.0873 24.6469 15.5532 23.862 15.485C23.7583 14.6922 24.1495 13.843 24.601 13.3167C25.0932 12.7169 25.9542 12.2864 26.6524 12.251C26.7351 13.0792 26.4122 13.8929 25.9279 14.4993H25.9266ZM26.6445 15.6412C25.504 15.5716 24.5248 16.2961 23.9841 16.2961C23.4315 16.2961 22.6034 15.6753 21.7017 15.6963C20.5322 15.7107 19.4389 16.3788 18.8443 17.4537C17.6067 19.5918 18.5228 22.7575 19.7119 24.5005C20.2933 25.3615 20.989 26.3052 21.9064 26.279C22.774 26.2435 23.1231 25.7054 24.1692 25.7054C25.2284 25.7054 25.5289 26.279 26.4529 26.258C27.4018 26.2435 28.003 25.397 28.5844 24.536C29.2472 23.5582 29.5202 22.6 29.5347 22.5528C29.5202 22.5318 27.6958 21.8283 27.6827 19.7086C27.6683 17.9302 29.1173 17.0836 29.179 17.035C28.3652 15.8052 27.0803 15.6753 26.6432 15.6425L26.6445 15.6412ZM33.228 13.234V26.1687H35.2165V21.7469H37.9662C40.4743 21.7469 42.2384 20.0039 42.2384 17.4879C42.2384 14.9665 40.5098 13.2354 38.0344 13.2354L33.228 13.234ZM35.2165 14.9298H37.5068C39.2288 14.9298 40.2145 15.859 40.2145 17.4931C40.2145 19.1272 39.2288 20.0643 37.4937 20.0643H35.2165V14.9298ZM45.8595 26.2645C47.1103 26.2645 48.2654 25.6293 48.793 24.616H48.835V26.1687H50.6725V19.7283C50.6725 17.8698 49.1972 16.661 46.92 16.661C44.8148 16.661 43.2555 17.8842 43.2017 19.559H44.9854C45.1364 18.7597 45.8608 18.2399 46.8662 18.2399C48.0829 18.2399 48.7602 18.8135 48.7602 19.8674V20.5775L46.2861 20.7284C43.9748 20.8715 42.7305 21.8217 42.7305 23.4834C42.7305 25.1581 44.0168 26.2659 45.8609 26.2659L45.8595 26.2645ZM46.4003 24.7329C45.3398 24.7329 44.6639 24.2197 44.6639 23.4348C44.6639 22.621 45.3135 22.142 46.5499 22.0659L48.7589 21.9294V22.6604C48.7589 23.8719 47.7404 24.7329 46.3924 24.7329H46.4003ZM53.1269 29.6889C55.0602 29.6889 55.971 28.9368 56.7638 26.674L60.2498 16.7896H58.2338L55.8962 24.4244H55.8542L53.5167 16.7896H51.439L54.8029 26.2029L54.6244 26.7764C54.316 27.7411 53.8251 28.1152 52.9497 28.1152C52.7922 28.1152 52.4916 28.0955 52.3682 28.0824V29.635C52.4837 29.6679 52.9772 29.6823 53.1203 29.6823L53.1269 29.6889Z" fill="white"/>
</g>
<defs>
<clipPath id="clip0_14_1615">
<rect width="42" height="42" fill="white" transform="translate(18.25)"/>
</clipPath>
</defs>
</svg>