<svg width="80" height="42" viewBox="0 0 80 42" fill="none" xmlns="http://www.w3.org/2000/svg">
<rect opacity="0.4" x="1.25" y="0.5" width="77.8888" height="41" rx="3.5" stroke="white"/>
<path d="M25.7005 17.2856C25.1669 17.2856 24.741 17.1269 24.4229 16.8096C24.1048 16.4821 23.9458 16.0931 23.9458 15.6428C23.9458 15.1924 24.0997 14.8086 24.4075 14.4913C24.7256 14.1638 25.1567 14 25.7005 14C26.2444 14 26.6703 14.1638 26.9781 14.4913C27.2962 14.8086 27.4553 15.1924 27.4553 15.6428C27.4553 16.0931 27.2962 16.4821 26.9781 16.8096C26.6703 17.1269 26.2444 17.2856 25.7005 17.2856Z" fill="#4AA330"/>
<path d="M45.8365 25.7748V23.7789C46.8217 23.1443 47.6428 22.4995 48.2996 21.8444C48.9667 21.1893 49.4696 20.5599 49.8083 19.956C50.147 19.3521 50.3163 18.825 50.3163 18.3746C50.3163 17.6684 49.9673 17.3152 49.2695 17.3152C48.8692 17.3152 48.5254 17.4432 48.2379 17.6991C47.9609 17.9447 47.7608 18.2467 47.6377 18.6049L45.4978 17.4227C45.6825 16.8905 45.975 16.4248 46.3753 16.0256C46.7755 15.6162 47.2579 15.2989 47.8224 15.0737C48.3868 14.8383 48.9974 14.7206 49.6543 14.7206C50.4138 14.7206 51.0655 14.8639 51.6094 15.1505C52.1533 15.4371 52.5689 15.8311 52.8563 16.3327C53.1436 16.824 53.2822 17.3869 53.272 18.0215C53.272 18.9222 52.9949 19.828 52.4407 20.739C51.8864 21.6499 50.9731 22.5404 49.7005 23.4104H53.5182V25.7748H45.8365Z" fill="#4AA330"/>
<path d="M58.421 25.7741V23.4405H53.8487V21.4292L59.2059 14.8428H61.2842V21.245H62.8235V23.4405H61.2842V25.7741H58.421ZM56.5889 21.245H58.421V19.0035L56.5889 21.245Z" fill="#4AA330"/>
<path d="M20.1565 25.9442C19.3047 25.9442 18.5657 25.7855 17.9397 25.4683C17.3239 25.1407 16.8467 24.6801 16.508 24.0865C16.1693 23.4928 16 22.7968 16 21.9985C16 21.1694 16.1847 20.4376 16.5542 19.803C16.9237 19.1684 17.4317 18.672 18.0782 18.3137C18.7351 17.9555 19.4894 17.7764 20.3412 17.7764C21.0904 17.7764 21.7421 17.9197 22.2963 18.2063C22.8505 18.4928 23.2713 18.9176 23.5586 19.4806L21.5574 20.9851C21.3624 20.4939 20.9827 20.2482 20.4182 20.2482C19.9769 20.2482 19.6228 20.4069 19.356 20.7242C19.0891 21.0312 18.9557 21.4406 18.9557 21.9524C18.9557 22.4335 19.0737 22.8071 19.3098 23.0732C19.5458 23.3393 19.8845 23.4723 20.3258 23.4723C20.8903 23.4723 21.3162 23.2114 21.6035 22.6893L23.5278 24.2707C23.2097 24.8234 22.7633 25.2431 22.1885 25.5297C21.6138 25.806 20.9365 25.9442 20.1565 25.9442Z" fill="#25252D"/>
<path d="M27.1467 17.8838V25.7752H24.2842V17.8838H27.1467Z" fill="#25252D"/>
<path d="M32.704 25.9435C31.6571 25.9435 30.8361 25.662 30.2408 25.099C29.6456 24.5258 29.3531 23.7786 29.3634 22.8575L29.4095 20.2321H28.1472V17.8831H29.4557L29.4865 16.2864H32.3191L32.2883 17.8831H34.659V20.2321H32.2575L32.2267 22.5197C32.2165 22.837 32.2986 23.0827 32.4731 23.2567C32.6577 23.4204 32.9092 23.5023 33.2273 23.5023C33.4429 23.5023 33.6584 23.4768 33.8739 23.4255C34.0894 23.3642 34.3101 23.2567 34.5359 23.1031L35.3364 25.2525C35.0798 25.4675 34.7257 25.6364 34.2742 25.7593C33.8226 25.8821 33.2992 25.9435 32.704 25.9435Z" fill="#25252D"/>
<path d="M38.8797 28.9994C38.5512 28.9994 38.192 28.9738 37.8021 28.9226C37.4223 28.8817 37.0529 28.81 36.6937 28.7077C36.3447 28.6054 36.0523 28.4773 35.8162 28.3238L36.4935 25.898C36.8835 26.0925 37.2786 26.2409 37.6788 26.3433C38.0894 26.4559 38.5461 26.5123 39.0489 26.5123C39.8598 26.5123 40.4396 26.3382 40.7885 25.9902C41.1375 25.6422 41.3428 25.0997 41.4043 24.3628L41.4351 23.979C41.1272 24.4703 40.7424 24.8592 40.2806 25.1458C39.8188 25.4323 39.2902 25.5757 38.6949 25.5757C37.6994 25.5757 36.9656 25.2481 36.4935 24.5931C36.0214 23.938 35.7905 23.0322 35.8008 21.8756L35.8162 17.8838H38.6795L38.6641 21.6913C38.6641 22.1008 38.7411 22.4078 38.895 22.6125C39.0593 22.8172 39.2851 22.9196 39.5724 22.9196C39.9316 22.9196 40.2344 22.7712 40.4807 22.4743C40.7373 22.1673 40.9374 21.6504 41.0811 20.9237C41.235 20.1867 41.3222 19.1734 41.3428 17.8838H44.1138V24.0557C44.1138 25.2021 43.8931 26.1386 43.4518 26.8653C43.0207 27.592 42.4101 28.1294 41.6198 28.4773C40.8399 28.8255 39.9265 28.9994 38.8797 28.9994Z" fill="#25252D"/>
<path d="M25.9234 17.2856C25.3873 17.2856 24.9594 17.1269 24.6398 16.8096C24.3201 16.4821 24.1603 16.0931 24.1603 15.6428C24.1603 15.1924 24.315 14.8086 24.6243 14.4913C24.9439 14.1638 25.377 14 25.9234 14C26.4699 14 26.8978 14.1638 27.2071 14.4913C27.5267 14.8086 27.6866 15.1924 27.6866 15.6428C27.6866 16.0931 27.5267 16.4821 27.2071 16.8096C26.8978 17.1269 26.4699 17.2856 25.9234 17.2856Z" fill="#4AA330"/>
<path d="M46.153 25.7757V23.7799C47.1428 23.1453 47.9676 22.5005 48.6275 21.8454C49.2977 21.1903 49.8029 20.5608 50.1432 19.9569C50.4834 19.3531 50.6535 18.8259 50.6535 18.3756C50.6535 17.6693 50.303 17.3162 49.6019 17.3162C49.1997 17.3162 48.8543 17.4442 48.5656 17.7C48.2872 17.9457 48.0862 18.2476 47.9625 18.6059L45.8127 17.4237C45.9983 16.8915 46.2922 16.4257 46.6943 16.0266C47.0964 15.6172 47.581 15.2999 48.1481 15.0747C48.7151 14.8393 49.3286 14.7216 49.9885 14.7216C50.7515 14.7216 51.4062 14.8649 51.9526 15.1514C52.4991 15.438 52.9166 15.8321 53.2054 16.3336C53.494 16.8249 53.6333 17.3879 53.623 18.0225C53.623 18.9232 53.3446 19.829 52.7878 20.74C52.231 21.6509 51.3134 22.5414 50.0349 23.4114H53.8703V25.7757H46.153Z" fill="#4AA330"/>
<path d="M58.7943 25.7758V23.4422H54.2008V21.4309L59.5829 14.8445H61.6708V21.2467H63.2172V23.4422H61.6708V25.7758H58.7943ZM56.9537 21.2467H58.7943V19.0052L56.9537 21.2467Z" fill="#4AA330"/>
<path d="M20.3533 25.9447C19.4975 25.9447 18.7551 25.786 18.1262 25.4688C17.5075 25.1412 17.0281 24.6806 16.6879 24.087C16.3476 23.4933 16.1775 22.7973 16.1775 21.999C16.1775 21.1699 16.3631 20.4381 16.7343 19.8035C17.1054 19.1689 17.6158 18.6725 18.2654 18.3142C18.9252 17.956 19.6831 17.7769 20.5389 17.7769C21.2915 17.7769 21.9462 17.9202 22.503 18.2067C23.0597 18.4933 23.4825 18.9181 23.7712 19.4811L21.7606 20.9856C21.5647 20.4943 21.1833 20.2487 20.6162 20.2487C20.1728 20.2487 19.8171 20.4074 19.549 20.7247C19.281 21.0317 19.1469 21.4411 19.1469 21.9529C19.1469 22.434 19.2655 22.8075 19.5026 23.0737C19.7398 23.3398 20.08 23.4728 20.5234 23.4728C21.0905 23.4728 21.5184 23.2119 21.807 22.6898L23.7402 24.2712C23.4206 24.8239 22.9721 25.2436 22.3947 25.5302C21.8173 25.8065 21.1369 25.9447 20.3533 25.9447Z" fill="#EDEDED"/>
<path d="M27.3769 17.8844V25.7758H24.5003V17.8844H27.3769Z" fill="#EDEDED"/>
<path d="M32.9593 25.9447C31.9076 25.9447 31.0828 25.6632 30.4848 25.1002C29.8867 24.5271 29.5929 23.7798 29.6032 22.8587L29.6496 20.2334H28.3814V17.8843H29.696L29.7269 16.2876H32.5727L32.5417 17.8843H34.9234V20.2334H32.5108L32.4798 22.5209C32.4696 22.8382 32.552 23.0839 32.7273 23.2579C32.9128 23.4217 33.1655 23.5035 33.4851 23.5035C33.7016 23.5035 33.9182 23.478 34.1347 23.4268C34.3512 23.3654 34.5729 23.2579 34.7997 23.1043L35.6039 25.2538C35.3462 25.4687 34.9904 25.6376 34.5368 25.7605C34.0831 25.8833 33.5573 25.9447 32.9593 25.9447Z" fill="#EDEDED"/>
<path d="M39.1629 29C38.8329 29 38.472 28.9744 38.0803 28.9232C37.6988 28.8823 37.3276 28.8107 36.9668 28.7083C36.6161 28.606 36.3223 28.478 36.0852 28.3245L36.7656 25.8986C37.1575 26.0931 37.5544 26.2415 37.9565 26.3439C38.3689 26.4565 38.8278 26.5129 39.3329 26.5129C40.1475 26.5129 40.7301 26.3388 41.0806 25.9908C41.4311 25.6428 41.6374 25.1003 41.6992 24.3634L41.7301 23.9796C41.4208 24.4709 41.0342 24.8598 40.5703 25.1464C40.1063 25.433 39.5753 25.5763 38.9773 25.5763C37.9771 25.5763 37.24 25.2487 36.7656 24.5937C36.2914 23.9386 36.0594 23.0328 36.0697 21.8762L36.0852 17.8844H38.9618L38.9463 21.6919C38.9463 22.1014 39.0236 22.4084 39.1783 22.6131C39.3433 22.8178 39.5701 22.9202 39.8588 22.9202C40.2197 22.9202 40.5239 22.7718 40.7713 22.475C41.0291 22.1679 41.2301 21.651 41.3745 20.9243C41.5291 20.1873 41.6167 19.174 41.6374 17.8844H44.4212V24.0564C44.4212 25.2027 44.1995 26.1392 43.7562 26.8659C43.3231 27.5927 42.7097 28.13 41.9157 28.478C41.1322 28.8261 40.2146 29 39.1629 29Z" fill="#EDEDED"/>
</svg>