<svg width="79" height="42" viewBox="0 0 79 42" fill="none" xmlns="http://www.w3.org/2000/svg">
<rect opacity="0.4" x="0.5" y="0.5" width="77.8888" height="41" rx="3.5" stroke="white"/>
<g clip-path="url(#clip0_14_1621)">
<path d="M30.9323 16.8306C34.4372 14.7913 38.2019 13.8746 42.2168 14.1646C45.2211 14.3891 48.0677 15.1562 50.7382 16.84C49.7461 17.2048 48.8281 17.3638 47.9008 17.4854C47.4558 17.5509 47.0107 17.579 46.5656 17.6538C44.9244 17.9157 44.572 18.7202 44.6184 20.1982C44.6555 21.6762 44.9707 23.0981 45.5456 24.4639C45.5642 24.5013 45.5549 24.5481 45.5642 24.5948C45.3787 24.6135 45.2675 24.4919 45.1376 24.4265C44.47 24.0897 43.7839 23.8184 43.0421 23.7249C41.985 23.5846 41.0485 23.8558 40.2974 24.651C39.3424 25.6706 38.4893 26.7744 37.6826 27.925C36.8666 29.1037 35.9486 30.1982 34.9101 31.1804C34.771 31.3114 34.6505 31.5733 34.3723 31.4049C35.587 29.3095 36.7368 27.1767 37.7475 24.969C38.5171 23.3039 39.0735 21.5827 39.2496 19.7492C39.2867 19.3937 39.2867 19.0383 39.2404 18.6735C39.1384 17.897 38.7118 17.4012 37.9979 17.13C37.2468 16.84 36.4586 16.8213 35.6705 16.7745C34.224 16.6997 32.7682 16.7184 31.3217 16.8213C31.2012 16.84 31.0713 16.8306 30.9323 16.8306Z" fill="#096BB6"/>
<path d="M55.087 23.0513C55.0221 25.0625 54.4472 26.8773 53.0007 28.3366C51.6377 29.7117 50.0243 30.0859 48.1976 29.4217C47.9009 29.3095 47.8731 29.4311 47.8267 29.6649C47.6412 30.8343 47.428 31.9942 47.2425 33.1635C47.1962 33.4442 47.1034 33.5377 46.8067 33.5377C45.6291 33.5283 45.6384 33.547 45.8238 32.3964C46.5007 28.2618 47.3353 24.1552 47.8545 20.0018C47.8916 19.6931 48.0029 19.5995 48.3181 19.5995C49.3288 19.6089 49.3288 19.5902 49.2083 20.6192C49.199 20.6659 49.1897 20.7127 49.1897 20.7595C49.1897 20.8811 49.0507 21.0588 49.2361 21.1243C49.3659 21.1711 49.4216 20.9933 49.4957 20.9092C50.2375 20.0392 51.1091 19.4124 52.3053 19.4031C53.3716 19.3937 54.1412 19.8802 54.6141 20.8343C54.985 21.5172 55.1148 22.2656 55.087 23.0513ZM53.4829 23.201C53.4922 22.7426 53.4365 22.2936 53.2604 21.8727C52.908 21.0401 52.2311 20.6753 51.4059 20.8717C50.9886 20.9746 50.6455 21.2085 50.3395 21.4891C49.6812 22.1065 49.2547 22.883 48.9672 23.7342C48.5407 24.9971 48.4665 26.3254 48.2161 27.6257C48.1605 27.8969 48.346 27.9718 48.5221 28.0747C49.5606 28.6453 50.7939 28.4582 51.7119 27.5415C52.908 26.3535 53.3994 24.8567 53.4829 23.201ZM49.1805 21.1524C49.1712 21.1898 49.1527 21.2272 49.1434 21.2646C49.1434 21.274 49.1805 21.2927 49.199 21.302C49.2176 21.2646 49.2361 21.2272 49.2639 21.1898C49.2361 21.1804 49.2176 21.1711 49.1805 21.1524Z" fill="#222222"/>
<path d="M20.6213 27.2983C20.408 27.6163 20.204 27.9437 19.9722 28.2431C19.4437 28.9446 18.776 29.4591 17.9044 29.6556C16.3281 30.0017 15.0763 29.1972 14.6869 27.5508C14.0564 24.9035 15.6141 20.3011 19.7033 19.506C20.8253 19.2815 21.9472 19.4031 23.0507 19.6744C23.3381 19.7398 23.3566 19.8802 23.3103 20.1421C22.9301 22.303 22.4758 24.4451 22.1976 26.6247C22.0863 27.4573 22.0214 28.2992 22.04 29.1411C22.0492 29.4217 21.975 29.5527 21.6783 29.5153C21.53 29.4966 21.3723 29.5153 21.2147 29.5153C20.5285 29.5153 20.5285 29.5153 20.5842 28.8043C20.6213 28.3179 20.6676 27.8221 20.714 27.3357C20.6862 27.3076 20.6491 27.3076 20.6213 27.2983ZM16.189 26.1944C16.2168 26.4283 16.2354 26.7183 16.3003 27.0083C16.5692 28.2056 17.5613 28.6547 18.6277 28.0653C18.9429 27.8876 19.2118 27.6631 19.4529 27.3918C20.2318 26.5125 20.714 25.4741 20.9458 24.3329C21.1591 23.332 21.2889 22.3123 21.5207 21.3114C21.6134 20.8904 21.428 20.8437 21.122 20.7969C20.0927 20.6566 19.1562 20.8904 18.3495 21.564C16.9215 22.7333 16.291 24.3048 16.189 26.1944Z" fill="#222222"/>
<path d="M61.2069 27.2328C61.04 27.4854 60.8916 27.7473 60.7154 27.9999C60.122 28.8512 59.3987 29.5247 58.3231 29.6837C57.0064 29.8802 55.9864 29.2721 55.5136 28.0093C55.189 27.1393 55.189 26.2319 55.3374 25.3339C55.7175 22.9766 56.7746 21.0589 58.9536 19.9457C60.4558 19.1786 62.0321 19.2722 63.6084 19.6744C63.8681 19.7399 63.8402 19.8896 63.8032 20.0954C63.4693 22.0131 63.1263 23.9307 62.8203 25.8484C62.6441 26.9241 62.5421 28.0093 62.5792 29.1037C62.5885 29.4124 62.4957 29.4966 62.1897 29.4966C61.0956 29.4966 61.0956 29.506 61.179 28.3928C61.2069 28.0093 61.2439 27.6257 61.281 27.2516C61.2532 27.2516 61.2347 27.2422 61.2069 27.2328ZM56.8488 26.26C56.8859 26.4845 56.9044 26.8025 56.9879 27.1019C57.3031 28.2712 58.3046 28.6734 59.3153 28.0186C59.5193 27.8877 59.714 27.7286 59.8902 27.5509C60.6505 26.7838 61.1141 25.839 61.3923 24.8007C61.7076 23.6407 61.8281 22.4434 62.0692 21.274C62.1434 20.9186 62.0043 20.8437 61.7168 20.797C60.5485 20.6286 59.5471 20.9654 58.7033 21.7792C57.4608 22.9766 56.9322 24.4826 56.8488 26.26Z" fill="#222222"/>
<path d="M32.8517 27.2796C33.0464 27.2047 33.0649 27.0363 33.1206 26.896C34.0942 24.5855 35.0678 22.2843 36.0229 19.9737C36.1341 19.7024 36.2547 19.5715 36.5607 19.5995C36.8481 19.6276 37.1448 19.6276 37.4416 19.5995C37.8032 19.5715 37.8681 19.665 37.7105 20.0018C36.9501 21.6388 36.199 23.2758 35.4572 24.9222C34.6505 26.6902 33.9087 28.4863 32.898 30.1607C32.1377 31.4236 31.2661 32.5836 30.0143 33.4067C29.6619 33.6406 29.291 33.8183 28.8923 33.968C28.6976 34.0429 28.5585 34.0241 28.5307 33.7809C28.5307 33.7622 28.5214 33.7529 28.5214 33.7342C28.4287 33.3693 28.2154 32.9858 28.2896 32.6584C28.3638 32.331 28.8552 32.3123 29.1612 32.1345C30.2647 31.4797 31.025 30.5162 31.6277 29.4124C31.7482 29.1879 31.7204 28.9634 31.6833 28.7295C31.1177 25.8577 30.5614 22.9859 29.9772 20.114C29.903 19.7398 29.9216 19.5528 30.3574 19.6089C30.7375 19.6557 31.2104 19.4499 31.4793 19.6931C31.7482 19.9269 31.6648 20.4227 31.7297 20.7969C32.1099 22.9484 32.4808 25.1093 32.8517 27.2796Z" fill="#222222"/>
<path d="M67.2618 27.2889C67.8089 25.9699 68.3467 24.6509 68.8937 23.3319C69.3573 22.2 69.8302 21.0682 70.2939 19.9269C70.3866 19.693 70.4979 19.5808 70.7668 19.5995C71.0727 19.6276 71.388 19.6276 71.694 19.5995C72.0649 19.5714 72.0649 19.693 71.9351 19.9924C71.1747 21.6762 70.4329 23.3694 69.6726 25.0532C68.9123 26.737 68.2168 28.4582 67.2896 30.0578C66.5756 31.2832 65.7596 32.4338 64.5913 33.2851C64.2019 33.5657 63.7846 33.7902 63.3303 33.9586C63.1356 34.0335 63.0057 34.0148 62.9686 33.7715C62.9686 33.7528 62.9594 33.7435 62.9594 33.7248C62.8667 33.3599 62.6534 32.9764 62.7183 32.649C62.7925 32.3216 63.2839 32.3029 63.5806 32.1251C64.6562 31.461 65.398 30.5068 65.9822 29.403C66.112 29.1691 66.0749 28.9259 66.0285 28.6733C65.4722 25.8296 64.9251 22.9952 64.3781 20.1514C64.2668 19.5995 64.2668 19.5995 64.8231 19.5995C65.8987 19.5995 65.8987 19.5995 66.0749 20.6566C66.4273 22.8081 66.7796 24.9596 67.132 27.1018C67.1412 27.1579 67.1598 27.214 67.1691 27.2702C67.1969 27.2795 67.2247 27.2889 67.2618 27.2889Z" fill="#222222"/>
<path d="M10.6348 29.6931C8.46506 29.6931 7.16691 28.4957 7.01855 26.3535C6.86092 24.043 7.56563 22.0505 9.26249 20.4696C10.1712 19.6277 11.2653 19.2628 12.5079 19.4406C13.5742 19.5902 14.3253 20.1609 14.5756 21.2366C14.8352 22.3217 14.6127 23.3227 13.704 24.0617C12.8417 24.7633 11.7846 24.9597 10.7183 25.0907C10.1156 25.1655 9.51285 25.2029 8.91941 25.1749C8.63196 25.1562 8.53924 25.2591 8.54851 25.549C8.55778 25.97 8.5856 26.391 8.69687 26.7932C8.9565 27.7286 9.6983 28.3086 10.6626 28.346C11.4693 28.3741 12.2297 28.2057 12.9344 27.8222C13.1662 27.7006 13.2682 27.6819 13.3238 27.9906C13.5278 29.0196 13.5186 29.057 12.5171 29.3937C11.9051 29.5808 11.2561 29.7118 10.6348 29.6931ZM9.85593 23.7998C9.9672 23.7904 10.1897 23.7998 10.403 23.7717C11.2004 23.6782 12.0071 23.594 12.6562 23.0514C13.1198 22.6679 13.2404 22.1534 13.0827 21.5734C12.9344 21.0402 12.5264 20.8157 12.0164 20.7408C11.5621 20.6754 11.1263 20.7689 10.7275 20.9934C9.9672 21.4237 9.45721 22.0785 9.13268 22.8643C8.65051 24.0523 8.64123 23.8372 9.85593 23.7998Z" fill="#222222"/>
<path d="M25.3595 29.6931C24.6455 29.7118 23.9779 29.5528 23.3474 29.2347C23.1156 29.1131 23.0321 28.9821 23.1527 28.7202C23.2825 28.4396 23.2918 28.0373 23.4957 27.8783C23.7183 27.7099 23.9965 28.0654 24.2654 28.1496C24.7104 28.2805 25.1555 28.4115 25.6284 28.3647C26.3146 28.2993 26.8524 27.9906 27.0842 27.317C27.316 26.6435 27.1955 26.0168 26.6577 25.521C26.4073 25.2871 26.1199 25.1094 25.8324 24.9223C24.525 24.0617 24.0336 22.9485 24.3766 21.6482C24.7197 20.3573 25.9066 19.4499 27.3531 19.3938C28.0114 19.3657 28.642 19.4499 29.2539 19.7212C29.4672 19.8147 29.5507 19.9364 29.4301 20.1515C29.4208 20.1609 29.4208 20.1796 29.4116 20.1983C29.3096 20.4883 29.2818 20.8718 29.0778 21.0495C28.8459 21.2553 28.5585 20.8999 28.2711 20.8437C27.9002 20.7783 27.5385 20.7034 27.1676 20.7689C26.5557 20.8718 26.1106 21.1899 25.9251 21.8072C25.7304 22.434 25.9344 22.9485 26.4166 23.3507C26.7689 23.6501 27.1769 23.8839 27.5478 24.1646C28.8645 25.1749 29.2261 26.6622 28.4565 28.056C27.7982 29.2628 26.6762 29.6744 25.3595 29.6931Z" fill="#222222"/>
<path d="M43.5613 10.544C43.5706 11.9751 42.4672 13.1068 41.067 13.1161C39.6298 13.1255 38.4893 12.0031 38.4893 10.5721C38.4893 9.16913 39.6391 8 41.0114 8C42.4116 8 43.5613 9.15043 43.5613 10.544Z" fill="#F7A71D"/>
<path d="M49.1805 21.1523C49.2176 21.1709 49.2361 21.1802 49.2639 21.1987C49.2454 21.2358 49.2268 21.2729 49.199 21.31C49.1805 21.3007 49.1434 21.2822 49.1434 21.2729C49.1434 21.2265 49.1619 21.1894 49.1805 21.1523Z" fill="#FDFDFD"/>
<path d="M56.8488 26.26C56.9322 24.4826 57.4607 22.9766 58.7033 21.7792C59.547 20.9654 60.5485 20.6286 61.7168 20.797C62.0043 20.8438 62.1433 20.9186 62.0692 21.2741C61.8188 22.4434 61.7075 23.6407 61.3923 24.8007C61.1141 25.839 60.6505 26.7838 59.8901 27.5509C59.714 27.7286 59.5192 27.8877 59.3152 28.0186C58.2953 28.6641 57.2938 28.2712 56.9878 27.1019C56.9044 26.7932 56.8766 26.4845 56.8488 26.26Z" fill="#FBFBFB"/>
<g clip-path="url(#clip1_14_1621)">
<path d="M31.3245 16.8306C34.8446 14.7913 38.6254 13.8746 42.6576 14.1646C45.6748 14.3891 48.5337 15.1562 51.2156 16.84C50.2192 17.2048 49.2973 17.3638 48.3661 17.4854C47.9191 17.5509 47.4721 17.579 47.0251 17.6538C45.3768 17.9157 45.0229 18.7202 45.0695 20.1982C45.1067 21.6762 45.4234 23.0981 46.0007 24.4639C46.0194 24.5013 46.01 24.5481 46.0194 24.5948C45.8331 24.6135 45.7214 24.4919 45.591 24.4265C44.9205 24.0897 44.2314 23.8184 43.4864 23.7249C42.4248 23.5846 41.4843 23.8558 40.73 24.651C39.7708 25.6706 38.9141 26.7744 38.1039 27.925C37.2844 29.1037 36.3625 30.1982 35.3195 31.1804C35.1798 31.3114 35.0588 31.5733 34.7794 31.4049C35.9993 29.3095 37.154 27.1767 38.1691 24.969C38.942 23.3039 39.5007 21.5827 39.6777 19.7492C39.7149 19.3937 39.7149 19.0383 39.6684 18.6735C39.5659 17.897 39.1376 17.4012 38.4205 17.13C37.6662 16.84 36.8747 16.8213 36.0831 16.7745C34.6304 16.6997 33.1684 16.7184 31.7156 16.8213C31.5946 16.84 31.4642 16.8306 31.3245 16.8306Z" fill="#0B83DE"/>
<path d="M55.5831 23.0513C55.5179 25.0625 54.9406 26.8773 53.4878 28.3366C52.1189 29.7117 50.4986 30.0859 48.6641 29.4217C48.3661 29.3095 48.3381 29.4311 48.2916 29.6649C48.1053 30.8343 47.8911 31.9942 47.7049 33.1635C47.6583 33.4442 47.5652 33.5377 47.2672 33.5377C46.0846 33.5283 46.0939 33.547 46.2801 32.3964C46.9599 28.2618 47.798 24.1552 48.3195 20.0018C48.3568 19.6931 48.4685 19.5995 48.7851 19.5995C49.8002 19.6089 49.8002 19.5902 49.6791 20.6192C49.6698 20.6659 49.6605 20.7127 49.6605 20.7595C49.6605 20.8811 49.5208 21.0588 49.707 21.1243C49.8374 21.1711 49.8933 20.9933 49.9678 20.9092C50.7128 20.0392 51.5881 19.4124 52.7894 19.4031C53.8603 19.3937 54.6333 19.8802 55.1082 20.8343C55.4807 21.5172 55.6111 22.2656 55.5831 23.0513ZM53.9721 23.201C53.9814 22.7426 53.9255 22.2936 53.7486 21.8727C53.3947 21.0401 52.7149 20.6753 51.8861 20.8717C51.4671 20.9746 51.1225 21.2085 50.8152 21.4891C50.154 22.1065 49.7257 22.883 49.437 23.7342C49.0086 24.9971 48.9341 26.3254 48.6827 27.6257C48.6268 27.8969 48.8131 27.9718 48.99 28.0747C50.033 28.6453 51.2715 28.4582 52.1934 27.5415C53.3947 26.3535 53.8883 24.8567 53.9721 23.201ZM49.6512 21.1524C49.6419 21.1898 49.6232 21.2272 49.6139 21.2646C49.6139 21.274 49.6512 21.2927 49.6698 21.302C49.6884 21.2646 49.707 21.2272 49.735 21.1898C49.707 21.1804 49.6884 21.1711 49.6512 21.1524Z" fill="white"/>
<path d="M20.9692 27.2983C20.755 27.6163 20.5501 27.9437 20.3173 28.2431C19.7865 28.9446 19.116 29.4591 18.2407 29.6556C16.6576 30.0017 15.4004 29.1972 15.0093 27.5508C14.3761 24.9035 15.9405 20.3011 20.0473 19.506C21.1741 19.2815 22.3009 19.4031 23.409 19.6744C23.6977 19.7398 23.7163 19.8802 23.6698 20.1421C23.288 22.303 22.8317 24.4451 22.5523 26.6247C22.4405 27.4573 22.3754 28.2992 22.394 29.1411C22.4033 29.4217 22.3288 29.5527 22.0308 29.5153C21.8818 29.4966 21.7235 29.5153 21.5652 29.5153C20.8761 29.5153 20.8761 29.5153 20.9319 28.8043C20.9692 28.3179 21.0158 27.8221 21.0623 27.3357C21.0344 27.3076 20.9971 27.3076 20.9692 27.2983ZM16.5179 26.1944C16.5458 26.4283 16.5645 26.7183 16.6296 27.0083C16.8997 28.2056 17.8961 28.6547 18.967 28.0653C19.2837 27.8876 19.5537 27.6631 19.7958 27.3918C20.5781 26.5125 21.0623 25.4741 21.2951 24.3329C21.5093 23.332 21.6397 22.3123 21.8725 21.3114C21.9656 20.8904 21.7794 20.8437 21.4721 20.7969C20.4384 20.6566 19.4978 20.8904 18.6877 21.564C17.2536 22.7333 16.6203 24.3048 16.5179 26.1944Z" fill="white"/>
<path d="M61.7292 27.2328C61.5616 27.4854 61.4126 27.7473 61.2357 27.9999C60.6397 28.8512 59.9133 29.5247 58.8331 29.6837C57.5107 29.8802 56.4864 29.2721 56.0115 28.0093C55.6855 27.1393 55.6855 26.2319 55.8345 25.3339C56.2163 22.9766 57.2779 21.0589 59.4663 19.9457C60.9749 19.1786 62.558 19.2722 64.1411 19.6744C64.4019 19.7399 64.3739 19.8896 64.3367 20.0954C64.0014 22.0131 63.6569 23.9307 63.3496 25.8484C63.1726 26.9241 63.0702 28.0093 63.1075 29.1037C63.1168 29.4124 63.0237 29.4966 62.7163 29.4966C61.6175 29.4966 61.6175 29.506 61.7013 28.3928C61.7292 28.0093 61.7665 27.6257 61.8037 27.2516C61.7758 27.2516 61.7572 27.2422 61.7292 27.2328ZM57.3524 26.26C57.3897 26.4845 57.4083 26.8025 57.4921 27.1019C57.8087 28.2712 58.8145 28.6734 59.8295 28.0186C60.0344 27.8877 60.2299 27.7286 60.4069 27.5509C61.1705 26.7838 61.6361 25.839 61.9155 24.8007C62.2321 23.6407 62.3532 22.4434 62.5953 21.274C62.6698 20.9186 62.5301 20.8437 62.2414 20.797C61.0681 20.6286 60.0623 20.9654 59.2149 21.7792C57.967 22.9766 57.4362 24.4826 57.3524 26.26Z" fill="white"/>
<path d="M33.2522 27.2796C33.4477 27.2047 33.4664 27.0363 33.5222 26.896C34.5 24.5855 35.4778 22.2843 36.437 19.9737C36.5487 19.7024 36.6698 19.5715 36.9771 19.5995C37.2658 19.6276 37.5638 19.6276 37.8618 19.5995C38.225 19.5715 38.2902 19.665 38.1318 20.0018C37.3682 21.6388 36.6139 23.2758 35.8689 24.9222C35.0588 26.6902 34.3138 28.4863 33.2987 30.1607C32.5351 31.4236 31.6598 32.5836 30.4026 33.4067C30.0487 33.6406 29.6762 33.8183 29.2758 33.968C29.0803 34.0429 28.9406 34.0241 28.9126 33.7809C28.9126 33.7622 28.9033 33.7529 28.9033 33.7342C28.8102 33.3693 28.596 32.9858 28.6705 32.6584C28.745 32.331 29.2386 32.3123 29.5459 32.1345C30.654 31.4797 31.4176 30.5162 32.023 29.4124C32.144 29.1879 32.1161 28.9634 32.0788 28.7295C31.5108 25.8577 30.952 22.9859 30.3654 20.114C30.2909 19.7398 30.3095 19.5528 30.7472 19.6089C31.129 19.6557 31.6039 19.4499 31.874 19.6931C32.144 19.9269 32.0602 20.4227 32.1254 20.7969C32.5072 22.9484 32.8797 25.1093 33.2522 27.2796Z" fill="white"/>
<path d="M67.8102 27.2889C68.3596 25.9699 68.8997 24.6509 69.4492 23.3319C69.9148 22.2 70.3897 21.0682 70.8553 19.9269C70.9484 19.693 71.0602 19.5808 71.3302 19.5995C71.6375 19.6276 71.9542 19.6276 72.2615 19.5995C72.634 19.5714 72.634 19.693 72.5036 19.9924C71.74 21.6762 70.995 23.3694 70.2314 25.0532C69.4678 26.737 68.7694 28.4582 67.8381 30.0578C67.1211 31.2832 66.3016 32.4338 65.1283 33.2851C64.7371 33.5657 64.3181 33.7902 63.8618 33.9586C63.6662 34.0335 63.5359 34.0148 63.4986 33.7715C63.4986 33.7528 63.4893 33.7435 63.4893 33.7248C63.3962 33.3599 63.182 32.9764 63.2472 32.649C63.3217 32.3216 63.8152 32.3029 64.1132 32.1251C65.1935 31.461 65.9384 30.5068 66.5251 29.403C66.6555 29.1691 66.6182 28.9259 66.5717 28.6733C66.0129 25.8296 65.4635 22.9952 64.9141 20.1514C64.8023 19.5995 64.8023 19.5995 65.3611 19.5995C66.4413 19.5995 66.4413 19.5995 66.6182 20.6566C66.9721 22.8081 67.326 24.9596 67.6798 27.1018C67.6891 27.1579 67.7078 27.214 67.7171 27.2702C67.745 27.2795 67.773 27.2889 67.8102 27.2889Z" fill="white"/>
<path d="M10.9399 29.6931C8.76077 29.6931 7.45704 28.4957 7.30804 26.3535C7.14973 24.043 7.85747 22.0505 9.56163 20.4696C10.4742 19.6277 11.5731 19.2628 12.8209 19.4406C13.8919 19.5902 14.6462 20.1609 14.8976 21.2366C15.1583 22.3217 14.9348 23.3227 14.0222 24.0617C13.1562 24.7633 12.0946 24.9597 11.0237 25.0907C10.4184 25.1655 9.81306 25.2029 9.21707 25.1749C8.92839 25.1562 8.83526 25.2591 8.84458 25.549C8.85389 25.97 8.88183 26.391 8.99357 26.7932C9.25432 27.7286 9.99931 28.3086 10.9678 28.346C11.778 28.3741 12.5416 28.2057 13.2493 27.8222C13.4821 27.7006 13.5846 27.6819 13.6404 27.9906C13.8453 29.0196 13.836 29.057 12.8303 29.3937C12.2156 29.5808 11.5638 29.7118 10.9399 29.6931ZM10.1576 23.7998C10.2694 23.7904 10.4929 23.7998 10.707 23.7717C11.5079 23.6782 12.3181 23.594 12.9699 23.0514C13.4356 22.6679 13.5566 22.1534 13.3983 21.5734C13.2493 21.0402 12.8396 20.8157 12.3274 20.7408C11.8711 20.6754 11.4334 20.7689 11.033 20.9934C10.2694 21.4237 9.75719 22.0785 9.43125 22.8643C8.94701 24.0523 8.9377 23.8372 10.1576 23.7998Z" fill="white"/>
<path d="M25.7278 29.6931C25.0108 29.7118 24.3403 29.5528 23.707 29.2347C23.4742 29.1131 23.3904 28.9821 23.5115 28.7202C23.6419 28.4396 23.6512 28.0373 23.856 27.8783C24.0795 27.7099 24.3589 28.0654 24.629 28.1496C25.076 28.2805 25.5229 28.4115 25.9979 28.3647C26.687 28.2993 27.2271 27.9906 27.4599 27.317C27.6927 26.6435 27.5716 26.0168 27.0315 25.521C26.7801 25.2871 26.4914 25.1094 26.2027 24.9223C24.8897 24.0617 24.3962 22.9485 24.7407 21.6482C25.0853 20.3573 26.2772 19.4499 27.73 19.3938C28.3911 19.3657 29.0244 19.4499 29.639 19.7212C29.8532 19.8147 29.937 19.9364 29.8159 20.1515C29.8066 20.1609 29.8066 20.1796 29.7973 20.1983C29.6949 20.4883 29.6669 20.8718 29.462 21.0495C29.2292 21.2553 28.9406 20.8999 28.6519 20.8437C28.2794 20.7783 27.9162 20.7034 27.5437 20.7689C26.9291 20.8718 26.4821 21.1899 26.2959 21.8072C26.1003 22.434 26.3052 22.9485 26.7894 23.3507C27.1433 23.6501 27.553 23.8839 27.9255 24.1646C29.2479 25.1749 29.611 26.6622 28.8381 28.056C28.1769 29.2628 27.0502 29.6744 25.7278 29.6931Z" fill="white"/>
<path d="M44.0079 10.5444C44.0172 11.9757 42.909 13.1075 41.5029 13.1169C40.0595 13.1263 38.914 12.0037 38.914 10.5725C38.914 9.16931 40.0688 8 41.447 8C42.8532 8 44.0079 9.1506 44.0079 10.5444Z" fill="#FDAD23"/>
<path d="M49.651 21.1523C49.6881 21.1711 49.7066 21.1804 49.7345 21.1991C49.7159 21.2365 49.6974 21.274 49.6696 21.3114C49.651 21.302 49.6139 21.2833 49.6139 21.274C49.6139 21.2272 49.6325 21.1898 49.651 21.1523Z" fill="#FDFDFD"/>
<path d="M57.3524 26.26C57.4362 24.4826 57.967 22.9766 59.2149 21.7792C60.0623 20.9654 61.068 20.6286 62.2414 20.797C62.5301 20.8438 62.6698 20.9186 62.5953 21.2741C62.3438 22.4434 62.2321 23.6407 61.9155 24.8007C61.6361 25.839 61.1705 26.7838 60.4069 27.5509C60.2299 27.7286 60.0344 27.8877 59.8295 28.0186C58.8051 28.6641 57.7994 28.2712 57.4921 27.1019C57.4083 26.7932 57.3804 26.4845 57.3524 26.26Z" fill="#191A23"/>
</g>
</g>
<defs>
<clipPath id="clip0_14_1621">
<rect width="65" height="25.9961" fill="white" transform="translate(7 8)"/>
</clipPath>
<clipPath id="clip1_14_1621">
<rect width="65.2794" height="25.9961" fill="white" transform="translate(7.2894 8)"/>
</clipPath>
</defs>
</svg>