<svg width="80" height="42" viewBox="0 0 80 42" fill="none" xmlns="http://www.w3.org/2000/svg">
<rect opacity="0.4" x="1.25" y="0.5" width="77.8888" height="41" rx="3.5" stroke="white"/>
<g clip-path="url(#clip0_14_1618)">
<path d="M38.5604 20.7934V26.0698H36.9355V13.0394H41.245C41.7594 13.0284 42.2709 13.1224 42.7498 13.316C43.2288 13.5096 43.6658 13.799 44.0356 14.1675C44.4091 14.5136 44.7064 14.9381 44.9075 15.4125C45.1085 15.8868 45.2087 16.3999 45.2013 16.9175C45.2119 17.4377 45.1133 17.9543 44.9121 18.4316C44.7109 18.909 44.4119 19.3358 44.0356 19.683C43.282 20.4233 42.3518 20.793 41.245 20.7924H38.5604V20.7934ZM38.5604 14.6437V19.1923H41.2854C41.5841 19.2014 41.8814 19.1462 42.1583 19.0302C42.4351 18.9142 42.6854 18.7399 42.8931 18.5186C43.0998 18.3116 43.264 18.0641 43.3762 17.7906C43.4883 17.5171 43.5461 17.2232 43.5461 16.9263C43.5461 16.6294 43.4883 16.3355 43.3762 16.062C43.264 15.7885 43.0998 15.541 42.8931 15.334C42.688 15.108 42.4386 14.9295 42.1614 14.8103C41.8842 14.6911 41.5856 14.6339 41.2854 14.6426H38.5604V14.6437Z" fill="white"/>
<path d="M48.9461 16.8638C50.1471 16.8638 51.0951 17.1944 51.7901 17.8556C52.4852 18.5169 52.8323 19.4235 52.8317 20.5754V26.0701H51.2774V24.8329H51.2068C50.534 25.8518 49.6391 26.3613 48.5222 26.3613C47.5688 26.3613 46.7712 26.0701 46.1293 25.4879C45.8212 25.2207 45.575 24.886 45.4084 24.5083C45.2418 24.1306 45.1592 23.7194 45.1665 23.3046C45.1665 22.3821 45.5049 21.6484 46.1818 21.1036C46.8586 20.5588 47.7622 20.2857 48.8926 20.2843C49.8574 20.2843 50.652 20.4663 51.2764 20.8302V20.4476C51.2783 20.1648 51.219 19.8851 51.1029 19.6289C50.9868 19.3726 50.8168 19.1462 50.6053 18.966C50.1756 18.5666 49.6156 18.3487 49.0369 18.3557C48.1293 18.3557 47.411 18.7501 46.8822 19.5389L45.4511 18.6104C46.2383 17.446 47.4033 16.8638 48.9461 16.8638ZM46.8438 23.341C46.8427 23.554 46.8911 23.7642 46.9848 23.9541C47.0786 24.144 47.215 24.3081 47.3828 24.4326C47.7421 24.7239 48.1882 24.8781 48.6453 24.8693C49.331 24.8681 49.9883 24.587 50.4731 24.0875C51.0113 23.5656 51.2805 22.9532 51.2805 22.2504C50.7738 21.8345 50.0673 21.6265 49.161 21.6265C48.501 21.6265 47.9506 21.7905 47.5099 22.1183C47.0648 22.451 46.8438 22.8555 46.8438 23.341Z" fill="white"/>
<path d="M61.753 17.1547L56.3273 29.9999H54.65L56.6634 25.5054L53.0957 17.1547H54.8619L57.4405 23.5591H57.4759L59.9838 17.1547H61.753Z" fill="white"/>
<path d="M31.9945 19.6564C31.9951 19.1463 31.9533 18.637 31.8694 18.1343H25.0166V21.0173H28.9415C28.8612 21.4778 28.6912 21.9167 28.4418 22.3077C28.1924 22.6986 27.8687 23.0335 27.4903 23.2921V25.1636H29.8327C31.2043 23.8608 31.9945 21.9343 31.9945 19.6564Z" fill="#4285F4"/>
<path d="M25.0169 26.9715C26.9778 26.9715 28.629 26.3082 29.833 25.1645L27.4905 23.2931C26.8386 23.7485 25.9989 24.0084 25.0169 24.0084C23.1215 24.0084 21.5128 22.6922 20.9375 20.9185H18.5244V22.8471C19.1292 24.0869 20.0566 25.1291 21.2031 25.8574C22.3496 26.5857 23.67 26.9714 25.0169 26.9715Z" fill="#34A853"/>
<path d="M20.9369 20.9185C20.6327 19.9891 20.6327 18.9825 20.9369 18.0531V16.1245H18.5238C18.015 17.1675 17.75 18.3185 17.75 19.4858C17.75 20.6531 18.015 21.8041 18.5238 22.8471L20.9369 20.9185Z" fill="#FBBC04"/>
<path d="M25.0169 14.9631C26.0532 14.9457 27.0545 15.349 27.8044 16.086L29.8784 13.9494C28.5633 12.6769 26.821 11.9783 25.0169 12C23.67 12.0001 22.3496 12.3858 21.2031 13.1141C20.0566 13.8424 19.1292 14.8846 18.5244 16.1244L20.9375 18.053C21.5128 16.2793 23.1215 14.9631 25.0169 14.9631Z" fill="#EA4335"/>
</g>
<defs>
<clipPath id="clip0_14_1618">
<rect width="44" height="18" fill="white" transform="translate(17.75 12)"/>
</clipPath>
</defs>
</svg>