<svg width="80" height="42" viewBox="0 0 80 42" fill="none" xmlns="http://www.w3.org/2000/svg">
<rect opacity="0.4" x="1.25" y="0.5" width="77.8888" height="41" rx="3.5" stroke="#DBDBDB"/>
<g clip-path="url(#clip0_168_2823)">
<path d="M30.8452 31.6193V30.2034C30.8452 29.6606 30.5088 29.3066 29.9319 29.3066C29.6435 29.3066 29.3311 29.401 29.1148 29.7078C28.9465 29.4482 28.7062 29.3066 28.3457 29.3066C28.1053 29.3066 27.865 29.3774 27.6727 29.637V29.3538H27.168V31.6193H27.6727V30.3686C27.6727 29.9674 27.889 29.7786 28.2255 29.7786C28.562 29.7786 28.7302 29.991 28.7302 30.3686V31.6193H29.2349V30.3686C29.2349 29.9674 29.4753 29.7786 29.7877 29.7786C30.1242 29.7786 30.2925 29.991 30.2925 30.3686V31.6193H30.8452ZM38.32 29.3538H37.5028V28.6694H36.9981V29.3538H36.5414V29.8022H36.9981V30.8405C36.9981 31.3597 37.2144 31.6665 37.7912 31.6665C38.0075 31.6665 38.2479 31.5957 38.4161 31.5013L38.2719 31.0765C38.1277 31.1709 37.9595 31.1945 37.8393 31.1945C37.5989 31.1945 37.5028 31.0529 37.5028 30.8169V29.8022H38.32V29.3538ZM42.5981 29.3066C42.3097 29.3066 42.1174 29.4482 41.9973 29.637V29.3538H41.4925V31.6193H41.9973V30.345C41.9973 29.9674 42.1655 29.755 42.4779 29.755C42.5741 29.755 42.6942 29.7786 42.7904 29.8022L42.9346 29.3302C42.8385 29.3066 42.6943 29.3066 42.5981 29.3066ZM36.1328 29.5426C35.8925 29.3774 35.556 29.3066 35.1955 29.3066C34.6187 29.3066 34.2341 29.5898 34.2341 30.0382C34.2341 30.4158 34.5225 30.6282 35.0272 30.699L35.2676 30.7226C35.532 30.7698 35.6762 30.8405 35.6762 30.9585C35.6762 31.1237 35.4839 31.2417 35.1474 31.2417C34.8109 31.2417 34.5466 31.1237 34.3783 31.0057L34.138 31.3833C34.4024 31.5721 34.7629 31.6665 35.1234 31.6665C35.7964 31.6665 36.1809 31.3597 36.1809 30.9349C36.1809 30.5338 35.8685 30.3214 35.3878 30.2506L35.1474 30.227C34.9311 30.2034 34.7629 30.1562 34.7629 30.0146C34.7629 29.8494 34.9311 29.755 35.1955 29.755C35.4839 29.755 35.7723 29.873 35.9165 29.9438L36.1328 29.5426ZM49.5441 29.3066C49.2557 29.3066 49.0634 29.4482 48.9432 29.637V29.3538H48.4385V31.6193H48.9432V30.345C48.9432 29.9674 49.1115 29.755 49.4239 29.755C49.52 29.755 49.6402 29.7786 49.7364 29.8022L49.8806 29.3302C49.7844 29.3066 49.6402 29.3066 49.5441 29.3066ZM43.1028 30.4866C43.1028 31.1709 43.5835 31.6665 44.3286 31.6665C44.6651 31.6665 44.9054 31.5957 45.1458 31.4069L44.9054 31.0057C44.7131 31.1473 44.5209 31.2181 44.3046 31.2181C43.896 31.2181 43.6076 30.9349 43.6076 30.4866C43.6076 30.0618 43.896 29.7786 44.3046 29.755C44.5209 29.755 44.7131 29.8258 44.9054 29.9674L45.1458 29.5662C44.9054 29.3774 44.6651 29.3066 44.3286 29.3066C43.5835 29.3066 43.1028 29.8022 43.1028 30.4866ZM47.7655 30.4866V29.3538H47.2608V29.637C47.0926 29.4246 46.8522 29.3066 46.5398 29.3066C45.8908 29.3066 45.3861 29.8022 45.3861 30.4866C45.3861 31.1709 45.8908 31.6665 46.5398 31.6665C46.8763 31.6665 47.1166 31.5485 47.2608 31.3361V31.6193H47.7655V30.4866ZM45.9149 30.4866C45.9149 30.0854 46.1793 29.755 46.6119 29.755C47.0205 29.755 47.3089 30.0618 47.3089 30.4866C47.3089 30.8877 47.0205 31.2181 46.6119 31.2181C46.1793 31.1945 45.9149 30.8877 45.9149 30.4866ZM39.8822 29.3066C39.2092 29.3066 38.7286 29.7786 38.7286 30.4866C38.7286 31.1945 39.2092 31.6665 39.9062 31.6665C40.2427 31.6665 40.5792 31.5721 40.8436 31.3597L40.6032 31.0057C40.411 31.1473 40.1706 31.2417 39.9303 31.2417C39.6178 31.2417 39.3054 31.1001 39.2333 30.699H40.9397V30.5102C40.9638 29.7786 40.5311 29.3066 39.8822 29.3066ZM39.8822 29.7314C40.1947 29.7314 40.411 29.9202 40.459 30.2742H39.2573C39.3054 29.9674 39.5217 29.7314 39.8822 29.7314ZM52.4042 30.4866V28.457H51.8995V29.637C51.7312 29.4246 51.4909 29.3066 51.1784 29.3066C50.5295 29.3066 50.0248 29.8022 50.0248 30.4866C50.0248 31.1709 50.5295 31.6665 51.1784 31.6665C51.5149 31.6665 51.7553 31.5485 51.8995 31.3361V31.6193H52.4042V30.4866ZM50.5535 30.4866C50.5535 30.0854 50.8179 29.755 51.2505 29.755C51.6591 29.755 51.9475 30.0618 51.9475 30.4866C51.9475 30.8877 51.6591 31.2181 51.2505 31.2181C50.8179 31.1945 50.5535 30.8877 50.5535 30.4866ZM33.6813 30.4866V29.3538H33.1766V29.637C33.0084 29.4246 32.768 29.3066 32.4556 29.3066C31.8066 29.3066 31.3019 29.8022 31.3019 30.4866C31.3019 31.1709 31.8066 31.6665 32.4556 31.6665C32.792 31.6665 33.0324 31.5485 33.1766 31.3361V31.6193H33.6813V30.4866ZM31.8066 30.4866C31.8066 30.0854 32.071 29.755 32.5036 29.755C32.9122 29.755 33.2006 30.0618 33.2006 30.4866C33.2006 30.8877 32.9122 31.2181 32.5036 31.2181C32.071 31.1945 31.8066 30.8877 31.8066 30.4866Z" fill="white"/>
<path d="M43.5357 12.1511H35.9648V25.5083H43.5357V12.1511Z" fill="#FF5F00"/>
<path d="M36.4453 18.8291C36.4453 16.1152 37.7432 13.7081 39.7381 12.1505C38.272 11.0178 36.4213 10.3334 34.4024 10.3334C29.6196 10.3334 25.75 14.1328 25.75 18.8291C25.75 23.5253 29.6196 27.3248 34.4024 27.3248C36.4213 27.3248 38.272 26.6404 39.7381 25.5076C37.7432 23.9737 36.4453 21.543 36.4453 18.8291Z" fill="#EB001B"/>
<path d="M53.7498 18.8291C53.7498 23.5253 49.8802 27.3248 45.0974 27.3248C43.0785 27.3248 41.2278 26.6404 39.7617 25.5077C41.7806 23.9501 43.0544 21.543 43.0544 18.8291C43.0544 16.1152 41.7566 13.7081 39.7617 12.1505C41.2278 11.0178 43.0785 10.3334 45.0974 10.3334C49.8802 10.3334 53.7498 14.1564 53.7498 18.8291Z" fill="#F79E1B"/>
</g>
<defs>
<clipPath id="clip0_168_2823">
<rect width="28" height="28" fill="white" transform="translate(25.75 7)"/>
</clipPath>
</defs>
</svg>