<svg width="79" height="42" viewBox="0 0 79 42" fill="none" xmlns="http://www.w3.org/2000/svg">
<rect opacity="0.4" x="0.5" y="0.5" width="77.8888" height="41" rx="3.5" stroke="white"/>
<path d="M43.6529 20.783L43.8176 20.8738C45.6465 21.7498 46.439 22.8278 46.439 24.2428C46.439 26.8033 44.3053 28.4878 41.0743 28.4878C39.6721 28.4878 38.3309 28.1509 37.5994 27.814L38.0261 25.0514L38.4528 25.2535C39.4892 25.7252 40.1598 25.9273 41.3791 25.9273C42.2326 25.9273 43.208 25.523 43.208 24.7145C43.208 24.1754 42.8422 23.7712 41.6229 23.1647C40.4037 22.5583 38.8796 21.615 38.8796 19.7957C38.8796 17.3701 41.0743 15.6855 44.1224 15.6855C45.3417 15.6855 46.3171 15.9551 46.9267 16.2246L46.439 18.8524L46.1342 18.7177C45.5855 18.4481 44.854 18.246 43.8176 18.246C42.5983 18.246 42.0497 18.785 42.0497 19.3241C42.0497 19.8995 42.6535 20.2323 43.6529 20.783Z" fill="white"/>
<path d="M34.7342 16.0898H37.7823L35.8925 28.2182H32.7834L34.7342 16.0898Z" fill="white"/>
<path fill-rule="evenodd" clip-rule="evenodd" d="M54.547 16.0898H52.1694C51.4378 16.0898 50.8892 16.1572 50.5844 16.9657L46.0121 28.2182H49.3041L49.9138 26.1968H53.8154L54.1812 28.2182H57.1074L54.547 16.0898ZM50.7673 24.2428V24.1754C51.0111 23.5016 51.9865 20.6043 51.9865 20.6043C51.9865 20.6043 52.2304 19.8631 52.4133 19.3914L52.5961 20.5369C52.5961 20.5369 53.2058 23.569 53.3277 24.2428H50.7673Z" fill="white"/>
<path d="M30.2837 16.1572H33.5757L28.6377 28.2856H25.3457L22.6786 17.8164C22.0461 17.4121 21.3603 17.05 20.6439 16.7467L18.7007 16.0898H24.3703C25.0409 16.0898 25.5896 16.2919 25.7725 17.1005L26.7555 22.2466L26.8698 22.7604C26.8546 22.7352 26.8469 22.7099 26.8393 22.6846L26.8698 22.8278L27.1746 24.5797L30.2837 16.1572Z" fill="white"/>
</svg>