<svg width="100%" height="100%" viewBox="0 0 24 24" version="1.1" xmlns="http://www.w3.org/2000/svg" xmlns:xlink="http://www.w3.org/1999/xlink" xml:space="preserve" xmlns:serif="http://www.serif.com/" style="fill-rule:evenodd;clip-rule:evenodd;stroke-linejoin:round;stroke-miterlimit:2;">
    <rect id="Artboard1" x="0" y="0" width="24" height="24" style="fill:none;"/>
    <g opacity="0.8">
    <g id="Artboard11" serif:id="Artboard1">
        <path d="M24,0L0,0L0,24L24,24L24,0ZM17.007,6.404L16.978,6.373C16.388,5.716 16.002,4.873 15.917,3.943L15.917,3.555L15.08,3.555C15.06,3.44 15.044,3.324 15.034,3.208L15.034,2.82L11.998,2.82L11.998,14.869C11.993,16.274 10.852,17.411 9.446,17.411C9.033,17.411 8.643,17.313 8.298,17.139L8.298,17.139C7.465,16.719 6.894,15.856 6.894,14.861C6.894,14.155 7.181,13.516 7.644,13.054C7.701,12.998 7.761,12.944 7.823,12.892C7.761,12.944 7.701,12.998 7.644,13.054C7.181,13.516 6.894,14.155 6.894,14.861C6.894,15.857 7.465,16.719 8.298,17.139C7.959,16.695 7.776,16.153 7.777,15.595C7.777,14.186 8.92,13.044 10.329,13.044C10.592,13.044 10.853,13.084 11.103,13.164L11.103,10.08C10.811,10.04 10.516,10.023 10.22,10.029L10.22,9.345C9.967,9.311 9.711,9.293 9.455,9.294C6.374,9.293 3.876,11.79 3.876,14.869C3.876,16.8 4.857,18.501 6.349,19.502L6.349,19.502C7.362,20.537 8.775,21.18 10.338,21.18C13.419,21.18 15.917,18.683 15.917,15.604L15.917,9.448C17.102,10.295 18.555,10.793 20.123,10.793L20.123,7.776C19.826,7.776 19.53,7.745 19.24,7.684L19.24,7.684C18.917,7.615 18.607,7.509 18.316,7.372C18.609,7.51 18.919,7.615 19.24,7.684L19.24,7.042C18.45,7.043 17.677,6.822 17.007,6.404ZM12.341,17.164C11.874,17.762 11.146,18.145 10.329,18.145C9.788,18.145 9.287,17.977 8.874,17.69C9.287,17.977 9.788,18.146 10.329,18.146C11.146,18.146 11.874,17.762 12.341,17.164ZM15.034,8.713C16.219,9.56 17.671,10.058 19.24,10.058L19.24,10.058C17.671,10.058 16.219,9.56 15.034,8.713L15.034,8.713ZM17.007,6.404L17.007,6.404L17.032,6.432L17.007,6.404Z" fill="white"/>
    </g>
    </g>
</svg>