<svg width="24" height="24" viewBox="0 0 24 24" fill="none" xmlns="http://www.w3.org/2000/svg">
<g opacity="0.8">
<g clip-path="url(#clip0_14_1643)">
<path d="M10.5534 17.7532C10.5534 17.7827 10.5534 17.8195 10.537 17.8401C10.4265 17.9828 10.2948 18.1018 10.1221 18.165C9.97197 18.2198 9.85243 18.1529 9.82083 17.997C9.80819 17.9354 9.80766 17.8706 9.80766 17.8074C9.80714 16.6462 9.80398 14.2653 9.8024 14.2364H8.94558C8.94558 14.2685 8.94452 17.5852 8.94663 18.2119C8.94716 18.3815 8.96506 18.55 9.03563 18.7074C9.11146 18.8781 9.23733 18.986 9.42481 19.0171C9.56226 19.0408 9.69655 19.0255 9.82715 18.9808C10.0947 18.8886 10.3043 18.7148 10.4891 18.5063C10.5054 18.4878 10.5228 18.4699 10.5539 18.4367V18.9571H11.4128V16.6805C11.4128 15.8916 11.4128 14.229 11.4128 14.229L10.5534 14.2311V17.7532Z" fill="white"/>
<path d="M14.6143 14.6054C14.4331 14.2194 14.0524 14.1172 13.7222 14.1999C13.5221 14.2504 13.3599 14.3658 13.2266 14.5148C13.1824 14.5648 13.1339 14.6617 13.1339 14.6617C13.1339 14.6617 13.1339 13.2361 13.1339 12.5547H12.2734V18.9558H13.1339V18.5967C13.1339 18.5967 13.195 18.6615 13.2171 18.6852C13.4146 18.8995 13.6542 19.0169 13.9497 19.0196C14.313 19.0232 14.5658 18.8474 14.6806 18.5019C14.7338 18.3413 14.7512 18.1759 14.7517 18.0084C14.7528 17.1137 14.7528 16.219 14.7512 15.3242C14.7512 15.0767 14.7212 14.8335 14.6143 14.6054ZM13.8654 17.9016C13.8654 17.9495 13.8596 17.998 13.8496 18.0448C13.8101 18.2323 13.6674 18.3166 13.4652 18.275C13.3425 18.2497 13.2466 18.1791 13.1645 18.0901C13.1608 18.0859 13.1366 18.0533 13.1366 18.0533L13.1345 15.141C13.1345 15.141 13.1529 15.0883 13.1934 15.0531C13.2946 14.9635 13.4062 14.9072 13.5458 14.9209C13.6648 14.9325 13.7596 14.9872 13.8038 15.0973C13.837 15.181 13.8633 15.2742 13.8638 15.3638C13.8681 16.2095 13.8665 17.0552 13.8654 17.9016Z" fill="white"/>
<path d="M11.5201 9.02552C11.7207 9.02552 11.8839 8.86232 11.8839 8.66167V6.09432C11.8839 5.89367 11.7207 5.73047 11.5201 5.73047C11.3195 5.73047 11.1562 5.89372 11.1562 6.09432V8.66167C11.1562 8.86226 11.3195 9.02552 11.5201 9.02552Z" fill="white"/>
<path d="M8.9475 12.5547H5.9668V13.472H6.97107V18.9558H7.94111V13.4699H8.9475V12.5547Z" fill="white"/>
<path d="M17.0721 17.2777V17.8849C17.0721 18.0971 16.9004 18.2688 16.6887 18.2688C16.4765 18.2688 16.3048 18.0971 16.3048 17.8849V16.7037H17.9526C17.9526 16.7037 17.9621 15.8795 17.9553 15.5056C17.9526 15.346 17.9405 15.1844 17.9079 15.0285C17.8226 14.624 17.6051 14.3191 17.198 14.1854C17.0784 14.1459 16.9499 14.1253 16.8241 14.1174C16.4054 14.0906 16.0389 14.2101 15.7524 14.5308C15.5012 14.8115 15.4138 15.1496 15.4133 15.5161C15.4117 16.2171 15.4085 16.9185 15.4154 17.6195C15.4175 17.798 15.4375 17.9802 15.478 18.154C15.5654 18.5274 15.7692 18.8207 16.1289 18.9829C16.3917 19.1019 16.6693 19.1077 16.9494 19.0667C17.4013 19.0003 17.7093 18.7581 17.8584 18.3215C17.9706 17.9944 17.9574 17.2777 17.9574 17.2777H17.0721ZM16.3048 15.3082C16.3048 15.0965 16.4765 14.9243 16.6887 14.9243C16.9004 14.9243 17.0721 15.0965 17.0721 15.3082V15.9712H16.3048V15.3082Z" fill="white"/>
<path d="M0 0V24H24V0H0ZM13.5203 5.00242H14.3943V8.62672C14.3943 8.67475 14.3982 8.7233 14.4066 8.77038C14.4331 8.91974 14.5435 8.99004 14.6873 8.94017C14.8627 8.8795 14.9965 8.75811 15.1099 8.61508C15.126 8.59465 15.1231 8.55652 15.1231 8.52656V5.00242H16.0034L16.0032 9.75491H15.1226L15.1237 9.24435C15.0263 9.34025 14.9432 9.42983 14.8519 9.51029C14.69 9.65291 14.5066 9.75923 14.2921 9.8012C13.9628 9.86556 13.6823 9.7615 13.5773 9.42045C13.5424 9.30686 13.5212 9.18442 13.5203 9.06582V5.00242ZM11.5201 4.88346C12.2165 4.88346 12.7811 5.448 12.7811 6.14441V8.61213C12.7811 9.30854 12.2165 9.87309 11.5201 9.87309C10.8237 9.87309 10.2592 9.30854 10.2592 8.61213V6.14441C10.2591 5.448 10.8236 4.88346 11.5201 4.88346ZM8.12811 3.32143C8.12811 3.32143 8.52861 5.02249 8.71978 5.82828C8.91094 5.02249 9.31176 3.32143 9.31176 3.32143H10.3139C10.3139 3.32143 9.54395 5.87489 9.19964 7.01366C9.18721 7.05479 9.18157 7.09956 9.18157 7.14269L9.182 9.75391H8.25792L8.25829 7.14269C8.25829 7.09956 8.25261 7.05485 8.24023 7.01366C7.89592 5.87489 7.12599 3.32143 7.12599 3.32143H8.12811ZM19.147 18.4775C19.147 19.6455 18.2139 20.5998 17.0463 20.6245C13.6828 20.6967 10.3176 20.6967 6.95352 20.6245C5.78652 20.5998 4.85334 19.6455 4.85334 18.4775V13.2239C4.85334 12.0563 5.78652 11.1021 6.95352 11.0773C10.3176 11.0052 13.6828 11.0052 17.0463 11.0773C18.2139 11.1021 19.147 12.0563 19.147 13.2239V18.4775Z" fill="white"/>
</g>
</g>
<defs>
<clipPath id="clip0_14_1643">
<rect width="24" height="24" rx="4" fill="white"/>
</clipPath>
</defs>
</svg>