<svg width="24" height="24" viewBox="0 0 24 24" fill="none" xmlns="http://www.w3.org/2000/svg">
<g opacity="0.8">
<path d="M7.05003 7.97963H13.4101C13.6588 7.97963 13.8601 8.18093 13.8601 8.42963C13.8601 8.67833 13.6588 8.87963 13.4101 8.87963H7.05003C6.80133 8.87963 6.60003 8.67833 6.60003 8.42963C6.60003 8.18093 6.80133 7.97963 7.05003 7.97963Z" fill="white"/>
<path d="M11.6101 12.4797H7.05003C6.80133 12.4797 6.60003 12.2784 6.60003 12.0297C6.60003 11.781 6.80133 11.5797 7.05003 11.5797H11.6101C11.8588 11.5797 12.0601 11.781 12.0601 12.0297C12.0601 12.2784 11.8588 12.4797 11.6101 12.4797Z" fill="white"/>
<path d="M15.2101 10.6797H7.05003C6.80133 10.6797 6.60003 10.4784 6.60003 10.2297C6.60003 9.98097 6.80133 9.77966 7.05003 9.77966H15.2101C15.4588 9.77966 15.6601 9.98097 15.6601 10.2297C15.6601 10.4784 15.4588 10.6797 15.2101 10.6797Z" fill="white"/>
<path fill-rule="evenodd" clip-rule="evenodd" d="M0 3.84C0 1.71923 1.71923 0 3.84 0H20.16C22.2808 0 24 1.71923 24 3.84V20.16C24 22.2808 22.2808 24 20.16 24H3.84C1.71923 24 0 22.2808 0 20.16V3.84ZM16.1101 5.27963H6.15C5.4054 5.27963 4.8 5.88533 4.8 6.62963V13.8297C4.8 14.5743 5.4054 15.1797 6.15 15.1797H7.5V17.4297C7.5 17.8311 7.98661 18.0294 8.26801 17.748L10.7043 15.3117C10.7889 15.2271 10.9029 15.1797 11.0226 15.1797H16.1101C16.8544 15.1797 17.4601 14.5743 17.4601 13.8297V6.62963C17.4601 5.88533 16.8544 5.27963 16.1101 5.27963ZM18.3659 7.07962H18.8099C19.5544 7.07962 20.16 7.6852 20.1599 8.42965V15.6297C20.1599 16.3741 19.5543 16.9737 18.8099 16.9737H17.4599V19.2298C17.4599 19.632 16.9739 19.8301 16.6918 19.5479L14.1236 16.9737H10.3089L11.2689 16.0797H16.1099C17.3505 16.0797 18.3659 15.0703 18.3659 13.8297V7.07962Z" fill="white"/>
</g>
</svg>