<svg xmlns="http://www.w3.org/2000/svg" width="40" height="40" fill="none" viewBox="0 0 40 40">
<g opacity="0.8">
    <path fill="white" fill-rule="evenodd" d="M0 6.4C0 2.865 2.865 0 6.4 0h27.2C37.135 0 40 2.865 40 6.4v27.2c0 3.535-2.865 6.4-6.4 6.4H6.4C2.865 40 0 37.135 0 33.6V6.4zm8.501 6.06c3.294 2.79 9.074 7.698 10.772 9.228.229.207.473.312.727.312.253 0 .498-.105.725-.31 1.7-1.532 7.48-6.44 10.774-9.23.205-.173.236-.478.07-.69-.383-.49-.956-.77-1.569-.77H10c-.613 0-1.185.28-1.57.77-.165.212-.134.517.071.69zm22.676 1.583c.147-.126.356-.154.533-.072.177.082.29.259.29.454v11.42c0 .187-.105.359-.272.444-.072.037-.15.055-.228.055-.103 0-.206-.032-.292-.094-2.167-1.56-5.169-3.754-7.16-5.35-.117-.092-.186-.232-.188-.38-.002-.15.061-.291.174-.388 2.143-1.844 4.986-4.26 7.143-6.089zM8.792 26.251c2.168-1.56 5.17-3.754 7.161-5.349.116-.093.185-.233.188-.381.002-.15-.061-.291-.174-.388-2.144-1.844-4.987-4.26-7.144-6.088-.148-.126-.357-.154-.533-.073-.177.082-.29.26-.29.454v11.42c0 .187.105.359.272.444.072.037.15.055.228.055.103 0 .206-.031.292-.094zm14.344-4.798c2.302 1.868 6.158 4.66 8.251 6.157.117.085.192.214.207.357.014.143-.034.286-.132.39-.379.408-.912.642-1.462.642H10c-.55 0-1.083-.234-1.462-.641-.098-.106-.145-.248-.131-.391.014-.143.09-.272.206-.357 2.097-1.5 5.957-4.295 8.251-6.157.188-.154.46-.15.643.011.452.393.83.726 1.097.966.825.744 1.968.744 2.791.001.268-.24.646-.573 1.098-.967.184-.16.456-.164.643-.011z" clip-rule="evenodd"/>
    </g>
</svg>