<svg width="24" height="24" viewBox="0 0 24 24" fill="none" xmlns="http://www.w3.org/2000/svg">
<g opacity="0.8">
<path fill-rule="evenodd" clip-rule="evenodd" d="M3.84 0C1.71923 0 0 1.71923 0 3.84V20.16C0 22.2808 1.71923 24 3.84 24H20.16C22.2808 24 24 22.2808 24 20.16V3.84C24 1.71923 22.2808 0 20.16 0H3.84ZM8.39958 19.56V15.7519L16.7084 8.48154L8.39958 19.56ZM5.04872 12.1074C4.73366 12.265 4.71425 12.7082 5.01401 12.8932L8.11748 14.8032L19.4155 4.84734L19.451 4.8L5.04872 12.1074ZM11.5217 16.8979L20.0773 5.46405L20.1602 5.39154L17.3919 19.793C17.333 20.107 16.9776 20.2563 16.7138 20.0931L11.5217 16.8979Z" fill="white"/>
</g>
</svg>